<?xml version="1.0" encoding="UTF-8"?><svg id="Layer_1" xmlns="http://www.w3.org/2000/svg" viewBox="0 0 458.63 465.33"><defs><style>.cls-1{fill:#018374;}.cls-2{fill:#02bc94;}</style></defs><g><path class="cls-1" d="m102.69,465.33c.14-.06.28-.12.42-.17-.15.06-.3.11-.45.17h.03Z"/><path class="cls-1" d="m113.09,143.26c9.54-26.21,38.53-39.74,64.74-30.19-54.76-19.93-115.3,8.31-135.23,63.06-19.93,54.76,8.31,115.3,63.06,135.23l352.97,128.47v-117.04l-315.35-114.78c-26.21-9.54-39.74-38.53-30.19-64.74Z"/><path class="cls-1" d="m103.11,465.16c.85-.32,1.69-.65,2.55-.96-.86.31-1.71.63-2.55.96Z"/></g><g><path class="cls-2" d="m103.11,310.4c.84.33,1.69.65,2.55.96-.86-.31-1.7-.64-2.55-.96Z"/><path class="cls-2" d="m458.63,335.72L105.66,464.2c-1,.36-1.99.75-2.97,1.14h321.41l34.54-12.57v-117.04Z"/><path class="cls-2" d="m9.73,105.65c-30,82.44,11.77,173.49,93.38,204.75-53.08-20.86-80.13-80.37-60.51-134.26,19.93-54.76,80.47-82.99,135.23-63.06l280.8,102.2v-117.04L215.45,9.72C132.16-20.59,40.06,22.35,9.73,105.65Z"/></g></svg>